<?xml version="1.0" encoding="UTF-8"?>
<svg id="Calque_2" data-name="Calque 2" xmlns="http://www.w3.org/2000/svg" viewBox="0 0 705.88 869.62">
  <defs>
    <style>
      .cls-1 {
        fill: #000;
        stroke: #000;
        stroke-width: 7.96px;
      }
    </style>
  </defs>
  <g id="Calque_1-2" data-name="Calque 1">
    <path class="cls-1" d="M345.85,865.64h-128.59c-7.69,0-12.87-7.88-9.82-14.94l60.59-140.09c2.94-6.8,11.74-8.62,17.14-3.55l94.12,88.45c4.19,3.96,10.36,4.98,15.68,2.72,5.27-2.27,8.72-7.53,8.72-13.31v-478.16c0-5.77-3.4-10.98-8.72-13.3-5.26-2.26-11.43-1.24-15.68,2.72L31.55,620.73c-4.19,3.9-5.66,9.96-3.79,15.33,1.87,5.44,6.73,9.23,12.45,9.74l132.42,11.38c7.38.63,11.89,8.39,8.81,15.12l-49.55,108.04-.48,1.05-35.92,78.03c-1.75,3.79-5.54,6.22-9.72,6.22H14.68c-5.91,0-10.7-4.79-10.7-10.7V14.68c0-5.91,4.79-10.7,10.7-10.7h354.07c154.21,0,271.32,162.8,191.99,313.34-2.59,4.92-.97,11,3.72,13.99,209.59,133.7,210.94,534.33-218.61,534.33Z"/>
  </g>
</svg>